# xmcd
#
# Track frame offsets:
#	150
#	10022
#	21445
#	32761
#	45229
#	57446
#	72642
#	82039
#	92090
#	101205
#	113625
#	123093
#	137210
#	148810
#	159008
#	173155
#
# Disc length: 2477 seconds
#
# Revision: 0
# Processed by: cddbd v1.5.2PL0 Copyright (c) Steve Scherf et al.
# Submitted via: audiograbber 1.83.01
#
DISCID=d509ab10
DTITLE=Various Artist - Country And Western Music
DYEAR=1900
DGENRE=Country
TTITLE0=Gene Martin - Wabash Cannon Ball
TTITLE1=Louis Nunley - Singin´The Blues
TTITLE2=Bobby Sykes - Fraulein
TTITLE3=Peter Wade - Guitar Boogie
TTITLE4=Bobby Sykes and Lou Darnell - Mockin´ Bird Hill
TTITLE5=The Cattlemen - Cool Water
TTITLE6=George McCormick - Jambalaya
TTITLE7=Bobby Sykes and Lou Darnell - Bouquet Of Roses
TTITLE8=Bobby Sykes - Tennessee Waltz
TTITLE9=Gene Martin - San Antonio Rose
TTITLE10=Jerry Reed - Yackety Axe
TTITLE11=Louis Nunley - Sixteen Tons
TTITLE12=Bobby Sykes - Your Cheatin´ Heart
TTITLE13=Paul Clayton - The Rovin´ Gambler
TTITLE14=Gene Martin - Mule Skinner Blues
TTITLE15=Harold Morrison And The Maple Hill Bluegrass Boys - New River Train
EXTD=
EXTT0=
EXTT1=
EXTT2=
EXTT3=
EXTT4=
EXTT5=
EXTT6=
EXTT7=
EXTT8=
EXTT9=
EXTT10=
EXTT11=
EXTT12=
EXTT13=
EXTT14=
EXTT15=
PLAYORDER=
